<svg width="24" height="24" viewBox="0 0 24 24" fill="none" xmlns="http://www.w3.org/2000/svg">
<path d="M12 1.00007C9.11346 0.970743 6.33338 2.08868 4.27073 4.1082C2.20809 6.12772 1.03166 8.88356 1 11.7701C1.01112 14.0512 1.74494 16.2702 3.09606 18.1082C4.44718 19.9462 6.34608 21.3088 8.52 22.0001C9.07 22.1001 9.27 21.7701 9.27 21.4801V19.6501C6.21 20.3001 5.56 18.2101 5.56 18.2101C5.3563 17.554 4.92323 16.9931 4.34 16.6301C3.34 15.9701 4.42 15.9801 4.42 15.9801C4.76565 16.0263 5.09635 16.1502 5.38731 16.3424C5.67826 16.5346 5.92192 16.7902 6.1 17.0901C6.41033 17.6282 6.91953 18.023 7.51801 18.1894C8.11649 18.3559 8.75639 18.2807 9.3 17.9801C9.35591 17.4325 9.60389 16.9223 10 16.5401C7.56 16.2701 5 15.3501 5 11.2201C4.97818 10.1428 5.37624 9.09919 6.11 8.31008C5.77583 7.38514 5.81529 6.36639 6.22 5.47007C6.22 5.47007 7.15 5.18008 9.22 6.57008C11.0219 6.08991 12.9181 6.08991 14.72 6.57008C16.82 5.18008 17.72 5.47007 17.72 5.47007C18.1247 6.36639 18.1642 7.38514 17.83 8.31008C18.5808 9.08472 19.0005 10.1213 19 11.2001C19 15.3401 16.42 16.2501 14 16.5201C14.265 16.7773 14.4697 17.0901 14.5994 17.4359C14.729 17.7818 14.7805 18.152 14.75 18.5201V21.4701C14.75 21.8201 14.95 22.1001 15.5 21.9901C17.6678 21.2945 19.5603 19.9316 20.9072 18.0962C22.2541 16.2608 22.9866 14.0467 23 11.7701C22.9683 8.88356 21.7919 6.12772 19.7293 4.1082C17.6666 2.08868 14.8865 0.970743 12 1.00007Z" fill="#C6C6C6"/>
</svg>
