<svg width="48" height="48" viewBox="0 0 48 48" fill="none" xmlns="http://www.w3.org/2000/svg">
<circle cx="24" cy="24" r="24" fill="#00FEC3" fill-opacity="0.2"/>
<g clip-path="url(#clip0)">
<path d="M23.6255 10.5757C22.5986 13.0931 21.975 14.742 20.8321 17.1847C21.5328 17.9275 22.3942 18.7897 23.7916 19.7668C22.2893 19.1487 21.2653 18.5298 20.4997 17.8857C19.0367 20.9386 16.7429 25.2859 12.0914 33.6437C15.7463 31.5337 18.58 30.2318 21.2206 29.7351C21.1074 29.2482 21.0472 28.719 21.0516 28.1694L21.0545 28.054C21.1125 25.7119 22.3311 23.9108 23.7747 24.033C25.2179 24.1552 26.3417 26.1538 26.2837 28.4963C26.2725 28.9375 26.2213 29.3613 26.1345 29.7549C28.7466 30.266 31.5533 31.5618 35.1595 33.6437C34.4483 32.3346 33.8114 31.1549 33.2052 30.0307C32.2504 29.2907 31.2549 28.328 29.2234 27.2852C30.6198 27.6482 31.6203 28.0677 32.3996 28.5356C26.2368 17.061 25.7387 15.5353 23.6255 10.5757V10.5756V10.5757Z" fill="#00FEC3"/>
<path d="M30.1176 24.2864C25.1176 17.5004 23.9588 12.0308 23.665 10.7249C26.3323 16.8765 26.3139 16.9522 30.1176 24.2864Z" fill="white" fill-opacity="0.16568"/>
<path d="M23.6703 10.6658C23.5406 10.9846 23.418 11.2954 23.2983 11.5894C23.1671 11.9118 23.0395 12.2225 22.9156 12.5243C22.7916 12.8261 22.6658 13.1121 22.5439 13.4029C22.4218 13.6936 22.3082 13.981 22.1835 14.2702C22.0588 14.5593 21.9218 14.8516 21.7892 15.1486C21.6565 15.4459 21.5181 15.7462 21.3725 16.0612C21.2269 16.3759 21.0741 16.7104 20.9104 17.0524C20.8884 17.0986 20.8657 17.1519 20.843 17.1988C21.5419 17.9391 22.4037 18.7944 23.7939 19.7669C22.292 19.1487 21.2709 18.5299 20.5049 17.8857C20.4653 17.9672 20.4336 18.0389 20.3925 18.1222C20.2411 18.4361 20.0785 18.7468 19.9081 19.0911C19.8673 19.1718 19.8374 19.245 19.7956 19.3275C19.615 19.6894 19.4258 20.0639 19.2211 20.465C19.1803 20.5443 19.1389 20.6099 19.0971 20.6903C18.9734 20.9307 18.578 21.6887 18.1736 22.459C17.9375 22.9088 17.7523 23.2772 17.4863 23.7768C17.4109 23.9202 17.256 24.2075 17.2159 24.2835C20.1445 22.6352 23.3041 20.2409 29.043 22.2899C28.7557 21.7457 28.48 21.2378 28.232 20.7581C27.984 20.278 27.7591 19.8314 27.545 19.4064C27.3309 18.9815 27.133 18.5807 26.9478 18.2011C26.7629 17.8216 26.5913 17.4633 26.4298 17.1198C26.2684 16.7763 26.1108 16.4458 25.9681 16.1286C25.825 15.8118 25.692 15.5051 25.5626 15.2052C25.4332 14.9049 25.3121 14.6076 25.1906 14.3152C25.0695 14.0228 24.9484 13.7423 24.8302 13.4479C24.779 13.3198 24.7354 13.1834 24.6839 13.0537C24.3638 12.3022 24.0499 11.5573 23.6703 10.6658V10.6658V10.6658Z" fill="url(#paint0_linear)"/>
</g>
<defs>
<linearGradient id="paint0_linear" x1="23.678" y1="14.3322" x2="19.7788" y2="21.0511" gradientUnits="userSpaceOnUse">
<stop stop-color="white" stop-opacity="0"/>
<stop offset="1" stop-color="white" stop-opacity="0.27451"/>
</linearGradient>
<clipPath id="clip0">
<rect width="23.4285" height="23.4285" fill="white" transform="translate(12 10.5)"/>
</clipPath>
</defs>
</svg>
