<svg width="219" height="137" viewBox="0 0 219 137" fill="none" xmlns="http://www.w3.org/2000/svg">
<path d="M21.3449 116.317H83.3138L85.6376 120.23C86.3262 121.391 87.6172 122.122 88.9513 122.122H130.049C131.426 122.122 132.674 121.391 133.362 120.23L135.686 116.317H198.085H215.127C217.279 116.317 219 114.597 219 112.447C219 110.297 217.279 108.577 215.127 108.577H201.959V17.4583C201.959 7.82612 194.126 0 184.487 0H34.9436C25.304 0 17.4718 7.82612 17.4718 17.4583V108.577H3.87306C1.72136 108.577 0 110.297 0 112.447V121.821C0 130.206 6.79937 137 15.191 137H203.852C209.145 137 214.137 134.162 216.891 129.604C218.01 127.755 217.408 125.39 215.557 124.315C213.707 123.197 211.34 123.799 210.264 125.648C208.887 127.927 206.52 129.26 203.895 129.26H15.191C11.1028 129.26 7.74612 125.906 7.74612 121.821V116.36H21.3449V116.317ZM25.2179 17.4583C25.2179 12.1262 29.5644 7.74011 34.9436 7.74011H184.573C189.909 7.74011 194.298 12.0832 194.298 17.4583V108.577H133.534H85.5086H25.2179V17.4583Z" fill="white"/>
</svg>