<svg width="219" height="172" viewBox="0 0 219 172" fill="none" xmlns="http://www.w3.org/2000/svg">
<path d="M62.0787 163.302H61.0872C58.9317 163.302 57.2072 165.026 57.2072 167.181C57.2072 169.337 58.9317 171.061 61.0872 171.061H62.0787C64.2342 171.061 65.9586 169.337 65.9586 167.181C65.9586 165.026 64.2342 163.302 62.0787 163.302Z" fill="black"/>
<path d="M215.12 0H3.87992C1.72441 0 0 1.72441 0 3.87992V126.744C0 128.9 1.72441 130.624 3.87992 130.624H84.9703V163.302H74.0634C71.9079 163.302 70.1835 165.026 70.1835 167.181C70.1835 169.337 71.9079 171.061 74.0634 171.061H88.8502H130.15H144.937C147.092 171.061 148.817 169.337 148.817 167.181C148.817 165.026 147.092 163.302 144.937 163.302H134.03V130.624H215.12C217.276 130.624 219 128.9 219 126.744V3.87992C219 1.72441 217.276 0 215.12 0ZM92.7301 163.302V131.486H95.9203C108.508 139.074 118.424 149.075 126.27 160.887V163.302H92.7301Z" fill="black"/>
</svg>
