<svg xmlns="http://www.w3.org/2000/svg" xmlns:xlink="http://www.w3.org/1999/xlink" version="1.1" x="0px" y="0px" viewBox="0 0 512 640" style="enable-background:new 0 0 512 512;" xml:space="preserve">
	<g>
		<path d="M511.1,324.6V99.2c0-30.2-24.6-54.7-54.7-54.7H55.6C25.4,44.4,0.9,69,0.9,99.2v225.4v26.9c0,30.2,24.6,54.7,54.7,54.7H227   c24.8,12.5,42.7,29.3,53.5,50.4h-79l3.5-23.3c0.7-4.9-2.7-9.5-7.6-10.2c-4.9-0.7-9.5,2.7-10.2,7.6l-3.9,25.9H159c-5,0-9,4-9,9   s4,9,9,9h32h130h32c5,0,9-4,9-9s-4-9-9-9h-24.2l-7.5-50.4h135.1c25.8,0,48.3-18.3,53.6-43.5c1-4.9-2.1-9.6-7-10.7   c-4.9-1-9.6,2.1-10.7,7c-3.5,16.9-18.7,29.2-36,29.2H55.6c-20.3,0-36.7-16.5-36.7-36.7v-17.9h483.2   C507.1,333.6,511.1,329.6,511.1,324.6z" />
		<path d="M128,456.7h-3.3c-5,0-9,4-9,9s4,9,9,9h3.3c5,0,9-4,9-9S133,456.7,128,456.7z" />
		<path d="M256,348.3c-6.9,0-12.6,5.6-12.6,12.6s5.6,12.6,12.6,12.6c6.6,0,11.9-5,12.5-11.4c-0.8,0.2-1.6,0.3-2.4,0.3   c-4.7,0-8.5-3.8-8.5-8.5c0-1.9,0.6-3.7,1.7-5.1C258.2,348.5,257.1,348.3,256,348.3z" />
	</g>
</svg>
