<svg xmlns="http://www.w3.org/2000/svg" xmlns:xlink="http://www.w3.org/1999/xlink" version="1.1" x="0px" y="0px" viewBox="0 0 512 640" style="enable-background:new 0 0 512 512;" xml:space="preserve"><g><path d="M349.8,493.8h-12.1v-19.9h10.8c5,0,9-4,9-9V205.7V58.3c0-5-4-9-9-9H200.6V33.4c0-8.2,6.7-14.9,14.9-14.9h80.9   c8.2,0,14.9,6.7,14.9,14.9c0,5,4,9,9,9s9-4,9-9c0-18.2-14.8-32.9-32.9-32.9h-80.9c-18.2,0-32.9,14.8-32.9,32.9v15.9h-19.1   c-5,0-9,4-9,9V349c0,5,4,9,9,9s9-4,9-9V67.3h166.9V204c-6.5,17.7-14.2,34.2-23.2,49.4c-1.7-1.3-3.8-2-6.1-2   c-5.6,0-10.2,4.6-10.2,10.2c0,3.9,2.2,7.2,5.3,8.9c-5.5,8-11.4,15.6-17.7,22.8c-2.4,1.2-4.2,3.2-5.1,5.7   c-12,13-25.3,24.8-40.1,35.3c-1.4-0.7-2.9-1.1-4.6-1.1c-5.6,0-10.2,4.6-10.2,10.2c0,0.3,0,0.5,0,0.8   c-20.1,12.5-42.5,23.1-67.2,31.7c-0.1,0-0.2,0.1-0.3,0.1c-0.1,0-0.2,0.1-0.3,0.1c-0.2,0.1-0.5,0.2-0.7,0.3c-0.1,0-0.1,0.1-0.2,0.1   c-0.2,0.1-0.3,0.2-0.5,0.3c-0.1,0-0.1,0.1-0.2,0.2c-0.1,0.1-0.3,0.2-0.4,0.3c-0.1,0.1-0.1,0.1-0.2,0.2c-0.2,0.1-0.3,0.3-0.4,0.4   c0,0-0.1,0.1-0.1,0.1c-0.2,0.2-0.4,0.4-0.5,0.6c0,0-0.1,0.1-0.1,0.1c-0.1,0.2-0.3,0.3-0.4,0.5c-0.1,0.1-0.1,0.2-0.2,0.2   c-0.1,0.1-0.2,0.3-0.3,0.4c-0.1,0.1-0.1,0.2-0.2,0.3c-0.1,0.1-0.1,0.3-0.2,0.4c0,0.1-0.1,0.2-0.1,0.3c-0.1,0.2-0.2,0.5-0.3,0.7   c0,0.1-0.1,0.2-0.1,0.3c0,0.2-0.1,0.3-0.1,0.5c0,0.1,0,0.2-0.1,0.3c0,0.2-0.1,0.4-0.1,0.5c0,0.1,0,0.2,0,0.3c0,0.3,0,0.5,0,0.8   v80.6c0,5,4,9,9,9h10.8v19.9h-12.1c-5,0-9,4-9,9s4,9,9,9h42.3c5,0,9-4,9-9s-4-9-9-9h-12.1v-19.9h127.2v19.9h-12.1c-5,0-9,4-9,9   s4,9,9,9h42.3c5,0,9-4,9-9S354.7,493.8,349.8,493.8z M248.1,425.3c0,5.6-4.6,10.2-10.2,10.2s-10.2-4.6-10.2-10.2   s4.6-10.2,10.2-10.2S248.1,419.7,248.1,425.3z M292.1,374.2c5.6,0,10.2,4.6,10.2,10.2s-4.6,10.2-10.2,10.2   c-5.6,0-10.2-4.6-10.2-10.2S286.5,374.2,292.1,374.2z M310.2,415.1c5.6,0,10.2,4.6,10.2,10.2s-4.6,10.2-10.2,10.2   s-10.2-4.6-10.2-10.2S304.6,415.1,310.2,415.1z M284.2,425.3c0,5.6-4.6,10.2-10.2,10.2s-10.2-4.6-10.2-10.2s4.6-10.2,10.2-10.2   S284.2,419.7,284.2,425.3z M310.2,333.3c5.6,0,10.2,4.6,10.2,10.2s-4.6,10.2-10.2,10.2s-10.2-4.6-10.2-10.2   S304.6,333.3,310.2,333.3z M274.1,333.3c5.6,0,10.2,4.6,10.2,10.2s-4.6,10.2-10.2,10.2s-10.2-4.6-10.2-10.2   S268.5,333.3,274.1,333.3z M256,374.2c5.6,0,10.2,4.6,10.2,10.2s-4.6,10.2-10.2,10.2s-10.2-4.6-10.2-10.2S250.4,374.2,256,374.2z    M219.9,374.2c5.6,0,10.2,4.6,10.2,10.2s-4.6,10.2-10.2,10.2c-5.6,0-10.2-4.6-10.2-10.2S214.2,374.2,219.9,374.2z M201.8,415.1   c5.6,0,10.2,4.6,10.2,10.2s-4.6,10.2-10.2,10.2s-10.2-4.6-10.2-10.2S196.2,415.1,201.8,415.1z"/><circle cx="201.8" cy="98" r="10.2"/><circle cx="201.8" cy="179.8" r="10.2"/><circle cx="201.8" cy="261.6" r="10.2"/><circle cx="201.8" cy="343.4" r="10.2"/><circle cx="237.9" cy="98" r="10.2"/><circle cx="237.9" cy="179.8" r="10.2"/><circle cx="237.9" cy="261.6" r="10.2"/><circle cx="274.1" cy="98" r="10.2"/><circle cx="274.1" cy="179.8" r="10.2"/><circle cx="274.1" cy="261.6" r="10.2"/><circle cx="219.9" cy="138.9" r="10.2"/><circle cx="219.9" cy="220.7" r="10.2"/><circle cx="219.9" cy="302.5" r="10.2"/><circle cx="256" cy="138.9" r="10.2"/><circle cx="256" cy="220.7" r="10.2"/><circle cx="256" cy="302.5" r="10.2"/><circle cx="292.1" cy="138.9" r="10.2"/><circle cx="292.1" cy="220.7" r="10.2"/><circle cx="310.2" cy="98" r="10.2"/><circle cx="310.2" cy="179.8" r="10.2"/></g><text x="0" y="527" fill="#000000" font-size="5px" font-weight="bold" font-family="'Helvetica Neue', Helvetica, Arial-Unicode, Arial, Sans-serif">Created by iconfield</text><text x="0" y="532" fill="#000000" font-size="5px" font-weight="bold" font-family="'Helvetica Neue', Helvetica, Arial-Unicode, Arial, Sans-serif">from the Noun Project</text></svg>