<svg xmlns="http://www.w3.org/2000/svg" xmlns:xlink="http://www.w3.org/1999/xlink" version="1.1" x="0px" y="0px" viewBox="0 0 512 640" style="enable-background:new 0 0 512 512;" xml:space="preserve">
	<g>
		<path d="M501,57.6H11c-5,0-9,4-9,9v285c0,5,4,9,9,9h188.1v75.8h-25.3c-5,0-9,4-9,9s4,9,9,9h34.3h95.8h34.3c5,0,9-4,9-9s-4-9-9-9   h-25.3v-75.8H501c5,0,9-4,9-9v-285C510,61.6,506,57.6,501,57.6z M217.1,436.4v-73.8h7.4c29.2,17.6,52.2,40.8,70.4,68.2v5.6H217.1z" />
		<path d="M146,436.4h-2.3c-5,0-9,4-9,9s4,9,9,9h2.3c5,0,9-4,9-9S151,436.4,146,436.4z" />
	</g>
</svg>
