<svg xmlns="http://www.w3.org/2000/svg" xmlns:xlink="http://www.w3.org/1999/xlink" version="1.1" x="0px" y="0px" viewBox="0 0 512 640" style="enable-background:new 0 0 512 512;" xml:space="preserve"><path d="M51.1,367.2h144l5.4,9.1c1.6,2.7,4.6,4.4,7.7,4.4h95.5c3.2,0,6.1-1.7,7.7-4.4l5.4-9.1h145h39.6c5,0,9-4,9-9s-4-9-9-9h-30.6  V137.3c0-22.4-18.2-40.6-40.6-40.6H82.7c-22.4,0-40.6,18.2-40.6,40.6v211.9H10.5c-5,0-9,4-9,9V380c0,19.5,15.8,35.3,35.3,35.3h438.4  c12.3,0,23.9-6.6,30.3-17.2c2.6-4.3,1.2-9.8-3.1-12.3c-4.3-2.6-9.8-1.2-12.3,3.1c-3.2,5.3-8.7,8.4-14.8,8.4H36.8  c-9.5,0-17.3-7.8-17.3-17.3v-12.7H51.1z M60.1,137.3c0-12.4,10.1-22.6,22.6-22.6h347.7c12.4,0,22.6,10.1,22.6,22.6v211.9H311.8  H200.2H60.1V137.3z"/><text x="0" y="527" fill="#000000" font-size="5px" font-weight="bold" font-family="'Helvetica Neue', Helvetica, Arial-Unicode, Arial, Sans-serif">Created by iconfield</text><text x="0" y="532" fill="#000000" font-size="5px" font-weight="bold" font-family="'Helvetica Neue', Helvetica, Arial-Unicode, Arial, Sans-serif">from the Noun Project</text></svg>