<svg width="83" height="23" viewBox="0 0 83 23" fill="none" xmlns="http://www.w3.org/2000/svg">
<g clip-path="url(#clip0)">
<path d="M17.5652 4.74203C16.223 4.10682 14.7878 3.64519 13.2873 3.38232C13.103 3.7193 12.8877 4.17255 12.7393 4.5331C11.1442 4.29048 9.56385 4.29048 7.99813 4.5331C7.84973 4.17255 7.62955 3.7193 7.44362 3.38232C5.94152 3.64519 4.50465 4.10852 3.16239 4.74539C0.455016 8.88341 -0.278907 12.9186 0.0880554 16.8966C1.88372 18.2529 3.62395 19.0768 5.3348 19.616C5.75722 19.0279 6.13396 18.4028 6.45851 17.7441C5.84039 17.5065 5.24836 17.2133 4.68896 16.873C4.83737 16.7618 4.98253 16.6455 5.12278 16.5259C8.5347 18.14 12.2418 18.14 15.613 16.5259C15.7549 16.6455 15.9 16.7618 16.0468 16.873C15.4858 17.215 14.8921 17.5082 14.274 17.7458C14.5986 18.4028 14.9737 19.0296 15.3977 19.6176C17.1102 19.0785 18.8521 18.2546 20.6477 16.8966C21.0783 12.2851 19.9122 8.28696 17.5652 4.74203ZM6.92334 14.4502C5.89911 14.4502 5.05916 13.4831 5.05916 12.3053C5.05916 11.1276 5.88118 10.1588 6.92334 10.1588C7.96553 10.1588 8.80545 11.1259 8.78751 12.3053C8.78913 13.4831 7.96553 14.4502 6.92334 14.4502ZM13.8125 14.4502C12.7882 14.4502 11.9483 13.4831 11.9483 12.3053C11.9483 11.1276 12.7703 10.1588 13.8125 10.1588C14.8546 10.1588 15.6946 11.1259 15.6766 12.3053C15.6766 13.4831 14.8546 14.4502 13.8125 14.4502Z" fill="white"/>
<path d="M27.8645 7.52417H32.3169C33.3902 7.52417 34.2969 7.6977 35.0408 8.04311C35.7827 8.38848 36.3389 8.87036 36.7076 9.48702C37.076 10.1037 37.2619 10.8096 37.2619 11.6049C37.2619 12.3833 37.0695 13.0892 36.6846 13.7211C36.2997 14.3546 35.7142 14.855 34.9265 15.224C34.1389 15.5929 33.1633 15.7783 31.9974 15.7783H27.8645V7.52417ZM31.9516 13.6806C32.6742 13.6806 33.2304 13.4936 33.6184 13.1212C34.0067 12.7472 34.2008 12.2384 34.2008 11.5931C34.2008 10.995 34.0277 10.5181 33.6821 10.1609C33.3364 9.80376 32.8129 9.62349 32.1131 9.62349H30.7202V13.6806H31.9516Z" fill="white"/>
<path d="M43.9277 15.7681C43.3112 15.603 42.7549 15.3637 42.2609 15.0486V13.0908C42.6344 13.389 43.135 13.6351 43.7629 13.8288C44.3908 14.0209 44.9977 14.1169 45.5846 14.1169C45.8586 14.1169 46.0659 14.0798 46.206 14.0057C46.3464 13.9316 46.4166 13.8423 46.4166 13.7395C46.4166 13.6216 46.3791 13.5238 46.3023 13.4446C46.2256 13.3655 46.0772 13.2997 45.8572 13.2441L44.4871 12.9257C43.7026 12.737 43.1464 12.4759 42.8155 12.1406C42.4843 11.807 42.3195 11.3689 42.3195 10.8264C42.3195 10.3698 42.463 9.97386 42.7535 9.63518C43.042 9.29653 43.4531 9.03537 43.9863 8.85171C44.5198 8.66639 45.1426 8.57373 45.8586 8.57373C46.4979 8.57373 47.0835 8.64448 47.617 8.78602C48.1502 8.92756 48.5905 9.10782 48.9413 9.32853V11.1802C48.5823 10.9595 48.1713 10.786 47.7017 10.6545C47.2335 10.5248 46.7526 10.4608 46.2566 10.4608C45.5406 10.4608 45.1835 10.5871 45.1835 10.8382C45.1835 10.9561 45.239 11.0437 45.3498 11.1027C45.4607 11.1617 45.6645 11.2223 45.9598 11.2864L47.1014 11.4986C47.8469 11.6318 48.4029 11.866 48.7682 12.1995C49.1337 12.5332 49.3162 13.0268 49.3162 13.6805C49.3162 14.3966 49.0146 14.9644 48.4095 15.3856C47.8043 15.8068 46.9464 16.0174 45.8342 16.0174C45.1801 16.0158 44.5443 15.9332 43.9277 15.7681Z" fill="white"/>
<path d="M52.0108 15.5204C51.3571 15.1902 50.8628 14.742 50.5333 14.1759C50.2039 13.6098 50.0376 12.9729 50.0376 12.2653C50.0376 11.5576 50.2087 10.9241 50.5512 10.3664C50.8938 9.80876 51.396 9.37069 52.0583 9.05226C52.7203 8.73382 53.5114 8.57544 54.4329 8.57544C55.5744 8.57544 56.5221 8.82312 57.2757 9.31845V11.4768C57.0099 11.2881 56.6998 11.1347 56.3459 11.0168C55.992 10.8989 55.6137 10.8399 55.2092 10.8399C54.5014 10.8399 53.9485 10.973 53.5489 11.2409C53.1492 11.5088 52.9489 11.8575 52.9489 12.2905C52.9489 12.7151 53.1427 13.0622 53.531 13.3352C53.9193 13.6064 54.4818 13.7429 55.2206 13.7429C55.6006 13.7429 55.9758 13.6856 56.3459 13.5727C56.7146 13.4582 57.0326 13.3183 57.2984 13.1532V15.2407C56.4619 15.7597 55.4914 16.0191 54.3871 16.0191C53.4577 16.0158 52.6649 15.8507 52.0108 15.5204Z" fill="white"/>
<path d="M60.1233 15.5204C59.4644 15.1902 58.9621 14.7386 58.6162 14.1641C58.2705 13.5895 58.096 12.9493 58.096 12.2416C58.096 11.534 58.2688 10.9022 58.6162 10.3479C58.9635 9.79355 59.4627 9.35885 60.1184 9.04378C60.7722 8.72871 61.5536 8.57202 62.4586 8.57202C63.3639 8.57202 64.1451 8.72871 64.7991 9.04378C65.4532 9.35885 65.9523 9.79019 66.2948 10.3411C66.6373 10.8921 66.8085 11.5239 66.8085 12.24C66.8085 12.9476 66.6373 13.5879 66.2948 14.1624C65.9523 14.7369 65.4515 15.1885 64.7926 15.5187C64.1337 15.8489 63.3557 16.014 62.4572 16.014C61.5584 16.014 60.7804 15.8506 60.1233 15.5204ZM63.5922 13.4278C63.8696 13.1414 64.0098 12.7623 64.0098 12.2905C64.0098 11.8188 63.871 11.443 63.5922 11.165C63.3151 10.8853 62.9364 10.7455 62.4572 10.7455C61.9694 10.7455 61.5877 10.8853 61.3088 11.165C61.0317 11.4447 60.893 11.8188 60.893 12.2905C60.893 12.7623 61.0317 13.1414 61.3088 13.4278C61.5863 13.7142 61.9694 13.8591 62.4572 13.8591C62.9364 13.8574 63.3151 13.7142 63.5922 13.4278Z" fill="white"/>
<path d="M73.6682 9.01009V11.5576C73.378 11.3605 73.0028 11.2627 72.538 11.2627C71.9295 11.2627 71.4599 11.4532 71.1336 11.8339C70.8058 12.2147 70.6427 12.8078 70.6427 13.6097V15.7799H67.8457V8.88037H70.5858V11.0741C70.7373 10.272 70.9838 9.68069 71.3229 9.2982C71.6606 8.91743 72.0975 8.72705 72.6293 8.72705C73.0321 8.72705 73.378 8.82141 73.6682 9.01009Z" fill="white"/>
<path d="M82.9614 7.28833V15.78H80.1641V14.235C79.9276 14.8163 79.5689 15.2594 79.0862 15.5627C78.6033 15.8643 78.0064 16.0159 77.2986 16.0159C76.6659 16.0159 76.1147 15.8575 75.6431 15.5391C75.1719 15.2207 74.8083 14.7843 74.5522 14.23C74.2978 13.6756 74.1688 13.0489 74.1688 12.348C74.1608 11.6252 74.2961 10.9765 74.5749 10.402C74.8524 9.82742 75.2452 9.37926 75.7509 9.05743C76.2566 8.73563 76.8339 8.57389 77.4814 8.57389C78.8139 8.57389 79.7076 9.172 80.1641 10.3666V7.28833H82.9614ZM79.7468 13.3808C80.0322 13.0944 80.174 12.722 80.174 12.2671C80.174 11.8274 80.0353 11.4685 79.7582 11.1938C79.4808 10.9192 79.1007 10.7811 78.6229 10.7811C78.1516 10.7811 77.775 10.9209 77.4927 11.2006C77.2105 11.4803 77.0704 11.8425 77.0704 12.2907C77.0704 12.7389 77.2105 13.1045 77.4927 13.3875C77.775 13.6706 78.1468 13.8121 78.6115 13.8121C79.0828 13.8104 79.4611 13.6672 79.7468 13.3808Z" fill="white"/>
<path d="M39.6189 9.61503C40.3889 9.61503 41.0134 9.03569 41.0134 8.32105C41.0134 7.60641 40.3889 7.0271 39.6189 7.0271C38.8486 7.0271 38.2244 7.60641 38.2244 8.32105C38.2244 9.03569 38.8486 9.61503 39.6189 9.61503Z" fill="white"/>
<path d="M38.2232 10.5063C39.0777 10.8871 40.1379 10.904 41.012 10.5063V15.817H38.2232V10.5063Z" fill="white"/>
</g>
<defs>
<clipPath id="clip0">
<rect width="83" height="23" fill="white"/>
</clipPath>
</defs>
</svg>
