<svg width="86" height="214" viewBox="0 0 86 214" fill="none" xmlns="http://www.w3.org/2000/svg">
<path d="M82.3191 206.341H77.2578V198.017H81.7753C83.8667 198.017 85.5399 196.344 85.5399 194.253V85.8327V24.177C85.5399 22.0856 83.8667 20.4124 81.7753 20.4124H19.9105V13.7617C19.9105 10.3317 22.713 7.52918 26.143 7.52918H59.9825C63.4124 7.52918 66.215 10.3317 66.215 13.7617C66.215 15.8531 67.8881 17.5263 69.9796 17.5263C72.071 17.5263 73.7442 15.8531 73.7442 13.7617C73.7442 6.14883 67.5535 0 59.9825 0H26.143C18.5302 0 12.3813 6.19066 12.3813 13.7617V20.4124H4.39202C2.30058 20.4124 0.627432 22.0856 0.627432 24.177V145.773C0.627432 147.865 2.30058 149.538 4.39202 149.538C6.48346 149.538 8.15661 147.865 8.15661 145.773V27.9416H77.9689V85.1216C75.25 92.5253 72.0292 99.427 68.2646 105.785C67.5535 105.241 66.6751 104.948 65.713 104.948C63.3706 104.948 61.4465 106.873 61.4465 109.215C61.4465 110.846 62.3667 112.227 63.6634 112.938C61.3628 116.284 58.8949 119.463 56.2597 122.475C55.2558 122.977 54.5029 123.813 54.1265 124.859C49.107 130.297 43.5438 135.232 37.3531 139.624C36.7675 139.332 36.1401 139.164 35.429 139.164C33.0866 139.164 31.1625 141.089 31.1625 143.431C31.1625 143.556 31.1625 143.64 31.1625 143.766C22.7549 148.994 13.3852 153.428 3.0535 157.025C3.01167 157.025 2.96984 157.067 2.92802 157.067C2.88619 157.067 2.84436 157.109 2.80253 157.109C2.71887 157.151 2.59339 157.193 2.50973 157.234C2.4679 157.234 2.4679 157.276 2.42607 157.276C2.34241 157.318 2.30058 157.36 2.21693 157.402C2.1751 157.402 2.1751 157.444 2.13327 157.485C2.09144 157.527 2.00778 157.569 1.96595 157.611C1.92412 157.653 1.92412 157.653 1.8823 157.695C1.79864 157.736 1.75681 157.82 1.71498 157.862L1.67315 157.904C1.58949 157.987 1.50584 158.071 1.46401 158.155L1.42218 158.196C1.38035 158.28 1.29669 158.322 1.25486 158.406C1.21303 158.447 1.21304 158.489 1.17121 158.489C1.12938 158.531 1.08755 158.615 1.04572 158.657C1.00389 158.698 1.00389 158.74 0.962064 158.782C0.920235 158.824 0.920236 158.908 0.878407 158.949C0.878407 158.991 0.836576 159.033 0.836576 159.075C0.794747 159.159 0.752917 159.284 0.711088 159.368C0.711088 159.41 0.669263 159.451 0.669263 159.493C0.669263 159.577 0.627432 159.619 0.627432 159.702C0.627432 159.744 0.627429 159.786 0.585601 159.828C0.585601 159.911 0.543776 159.995 0.543776 160.037C0.543776 160.079 0.543776 160.121 0.543776 160.162C0.543776 160.288 0.543776 160.372 0.543776 160.497V194.211C0.543776 196.303 2.21693 197.976 4.30837 197.976H8.82588V206.3H3.76459C1.67315 206.3 0 207.973 0 210.064C0 212.156 1.67315 213.829 3.76459 213.829H21.4582C23.5496 213.829 25.2228 212.156 25.2228 210.064C25.2228 207.973 23.5496 206.3 21.4582 206.3H16.3969V197.976H69.6031V206.3H64.5418C62.4504 206.3 60.7772 207.973 60.7772 210.064C60.7772 212.156 62.4504 213.829 64.5418 213.829H82.2354C84.3269 213.829 86 212.156 86 210.064C86 207.973 84.3687 206.341 82.3191 206.341ZM39.7792 177.689C39.7792 180.031 37.8551 181.955 35.5126 181.955C33.1702 181.955 31.2461 180.031 31.2461 177.689C31.2461 175.346 33.1702 173.422 35.5126 173.422C37.8551 173.422 39.7792 175.346 39.7792 177.689ZM58.1839 156.314C60.5263 156.314 62.4504 158.238 62.4504 160.581C62.4504 162.923 60.5263 164.847 58.1839 164.847C55.8414 164.847 53.9173 162.923 53.9173 160.581C53.9173 158.238 55.8414 156.314 58.1839 156.314ZM65.7549 173.422C68.0973 173.422 70.0214 175.346 70.0214 177.689C70.0214 180.031 68.0973 181.955 65.7549 181.955C63.4125 181.955 61.4883 180.031 61.4883 177.689C61.4883 175.346 63.4125 173.422 65.7549 173.422ZM54.8794 177.689C54.8794 180.031 52.9553 181.955 50.6128 181.955C48.2704 181.955 46.3463 180.031 46.3463 177.689C46.3463 175.346 48.2704 173.422 50.6128 173.422C52.9553 173.422 54.8794 175.346 54.8794 177.689ZM65.7549 139.206C68.0973 139.206 70.0214 141.13 70.0214 143.473C70.0214 145.815 68.0973 147.739 65.7549 147.739C63.4125 147.739 61.4883 145.815 61.4883 143.473C61.4883 141.13 63.4125 139.206 65.7549 139.206ZM50.6547 139.206C52.9971 139.206 54.9212 141.13 54.9212 143.473C54.9212 145.815 52.9971 147.739 50.6547 147.739C48.3123 147.739 46.3881 145.815 46.3881 143.473C46.3881 141.13 48.3123 139.206 50.6547 139.206ZM43.0837 156.314C45.4261 156.314 47.3502 158.238 47.3502 160.581C47.3502 162.923 45.4261 164.847 43.0837 164.847C40.7412 164.847 38.8171 162.923 38.8171 160.581C38.8171 158.238 40.7412 156.314 43.0837 156.314ZM27.9835 156.314C30.3259 156.314 32.25 158.238 32.25 160.581C32.25 162.923 30.3259 164.847 27.9835 164.847C25.641 164.847 23.7169 162.923 23.7169 160.581C23.7169 158.238 25.5992 156.314 27.9835 156.314ZM20.4125 173.422C22.7549 173.422 24.679 175.346 24.679 177.689C24.679 180.031 22.7549 181.955 20.4125 181.955C18.07 181.955 16.1459 180.031 16.1459 177.689C16.1459 175.346 18.07 173.422 20.4125 173.422Z" fill="white"/>
<path d="M20.4125 45.0496C22.7689 45.0496 24.6791 43.1394 24.6791 40.783C24.6791 38.4267 22.7689 36.5165 20.4125 36.5165C18.0562 36.5165 16.146 38.4267 16.146 40.783C16.146 43.1394 18.0562 45.0496 20.4125 45.0496Z" fill="white"/>
<path d="M20.4125 79.2657C22.7689 79.2657 24.6791 77.3555 24.6791 74.9992C24.6791 72.6429 22.7689 70.7327 20.4125 70.7327C18.0562 70.7327 16.146 72.6429 16.146 74.9992C16.146 77.3555 18.0562 79.2657 20.4125 79.2657Z" fill="white"/>
<path d="M20.4125 113.482C22.7689 113.482 24.6791 111.571 24.6791 109.215C24.6791 106.859 22.7689 104.948 20.4125 104.948C18.0562 104.948 16.146 106.859 16.146 109.215C16.146 111.571 18.0562 113.482 20.4125 113.482Z" fill="white"/>
<path d="M20.4125 147.697C22.7689 147.697 24.6791 145.787 24.6791 143.431C24.6791 141.075 22.7689 139.164 20.4125 139.164C18.0562 139.164 16.146 141.075 16.146 143.431C16.146 145.787 18.0562 147.697 20.4125 147.697Z" fill="white"/>
<path d="M35.5126 45.0496C37.869 45.0496 39.7792 43.1394 39.7792 40.783C39.7792 38.4267 37.869 36.5165 35.5126 36.5165C33.1563 36.5165 31.2461 38.4267 31.2461 40.783C31.2461 43.1394 33.1563 45.0496 35.5126 45.0496Z" fill="white"/>
<path d="M35.5126 79.2657C37.869 79.2657 39.7792 77.3555 39.7792 74.9992C39.7792 72.6429 37.869 70.7327 35.5126 70.7327C33.1563 70.7327 31.2461 72.6429 31.2461 74.9992C31.2461 77.3555 33.1563 79.2657 35.5126 79.2657Z" fill="white"/>
<path d="M35.5126 113.482C37.869 113.482 39.7792 111.571 39.7792 109.215C39.7792 106.859 37.869 104.948 35.5126 104.948C33.1563 104.948 31.2461 106.859 31.2461 109.215C31.2461 111.571 33.1563 113.482 35.5126 113.482Z" fill="white"/>
<path d="M50.6546 45.0496C53.0109 45.0496 54.9211 43.1394 54.9211 40.783C54.9211 38.4267 53.0109 36.5165 50.6546 36.5165C48.2983 36.5165 46.3881 38.4267 46.3881 40.783C46.3881 43.1394 48.2983 45.0496 50.6546 45.0496Z" fill="white"/>
<path d="M50.6546 79.2657C53.0109 79.2657 54.9211 77.3555 54.9211 74.9992C54.9211 72.6429 53.0109 70.7327 50.6546 70.7327C48.2983 70.7327 46.3881 72.6429 46.3881 74.9992C46.3881 77.3555 48.2983 79.2657 50.6546 79.2657Z" fill="white"/>
<path d="M50.6546 113.482C53.0109 113.482 54.9211 111.571 54.9211 109.215C54.9211 106.859 53.0109 104.948 50.6546 104.948C48.2983 104.948 46.3881 106.859 46.3881 109.215C46.3881 111.571 48.2983 113.482 50.6546 113.482Z" fill="white"/>
<path d="M27.9835 62.1577C30.3398 62.1577 32.25 60.2475 32.25 57.8912C32.25 55.5348 30.3398 53.6246 27.9835 53.6246C25.6271 53.6246 23.7169 55.5348 23.7169 57.8912C23.7169 60.2475 25.6271 62.1577 27.9835 62.1577Z" fill="white"/>
<path d="M27.9835 96.3734C30.3398 96.3734 32.25 94.4632 32.25 92.1069C32.25 89.7505 30.3398 87.8403 27.9835 87.8403C25.6271 87.8403 23.7169 89.7505 23.7169 92.1069C23.7169 94.4632 25.6271 96.3734 27.9835 96.3734Z" fill="white"/>
<path d="M27.9835 130.59C30.3398 130.59 32.25 128.679 32.25 126.323C32.25 123.967 30.3398 122.057 27.9835 122.057C25.6271 122.057 23.7169 123.967 23.7169 126.323C23.7169 128.679 25.6271 130.59 27.9835 130.59Z" fill="white"/>
<path d="M43.0837 62.1577C45.44 62.1577 47.3502 60.2475 47.3502 57.8912C47.3502 55.5348 45.44 53.6246 43.0837 53.6246C40.7273 53.6246 38.8171 55.5348 38.8171 57.8912C38.8171 60.2475 40.7273 62.1577 43.0837 62.1577Z" fill="white"/>
<path d="M43.0837 96.3734C45.44 96.3734 47.3502 94.4632 47.3502 92.1069C47.3502 89.7505 45.44 87.8403 43.0837 87.8403C40.7273 87.8403 38.8171 89.7505 38.8171 92.1069C38.8171 94.4632 40.7273 96.3734 43.0837 96.3734Z" fill="white"/>
<path d="M43.0837 130.59C45.44 130.59 47.3502 128.679 47.3502 126.323C47.3502 123.967 45.44 122.057 43.0837 122.057C40.7273 122.057 38.8171 123.967 38.8171 126.323C38.8171 128.679 40.7273 130.59 43.0837 130.59Z" fill="white"/>
<path d="M58.1839 62.1577C60.5402 62.1577 62.4504 60.2475 62.4504 57.8912C62.4504 55.5348 60.5402 53.6246 58.1839 53.6246C55.8276 53.6246 53.9174 55.5348 53.9174 57.8912C53.9174 60.2475 55.8276 62.1577 58.1839 62.1577Z" fill="white"/>
<path d="M58.1839 96.3734C60.5402 96.3734 62.4504 94.4632 62.4504 92.1069C62.4504 89.7505 60.5402 87.8403 58.1839 87.8403C55.8276 87.8403 53.9174 89.7505 53.9174 92.1069C53.9174 94.4632 55.8276 96.3734 58.1839 96.3734Z" fill="white"/>
<path d="M65.7549 45.0496C68.1113 45.0496 70.0215 43.1394 70.0215 40.783C70.0215 38.4267 68.1113 36.5165 65.7549 36.5165C63.3986 36.5165 61.4884 38.4267 61.4884 40.783C61.4884 43.1394 63.3986 45.0496 65.7549 45.0496Z" fill="white"/>
<path d="M65.7549 79.2657C68.1113 79.2657 70.0215 77.3555 70.0215 74.9992C70.0215 72.6429 68.1113 70.7327 65.7549 70.7327C63.3986 70.7327 61.4884 72.6429 61.4884 74.9992C61.4884 77.3555 63.3986 79.2657 65.7549 79.2657Z" fill="white"/>
</svg>