<svg width="48" height="48" viewBox="0 0 48 48" fill="none" xmlns="http://www.w3.org/2000/svg">
<circle cx="24" cy="24" r="24" fill="#FF05BC" fill-opacity="0.2"/>
<path d="M15.7602 23.9387C15.7602 25.2377 14.7509 26.2908 13.5055 26.2908C12.2593 26.2908 11.25 25.2377 11.25 23.9387C11.25 22.6396 12.2593 21.586 13.5055 21.586C14.7509 21.586 15.7602 22.6396 15.7602 23.9387ZM23.5596 18.3093C26.234 18.3093 28.4377 20.4096 28.7384 23.1153L32.2422 23.0042C32.0869 21.0084 31.3136 19.1949 30.1221 17.7724C29.6102 18.1504 28.9853 18.3724 28.3109 18.3724C26.5789 18.3724 25.1758 16.9084 25.1758 15.1026C25.1758 15.0068 25.1795 14.913 25.1869 14.8201C24.6597 14.716 24.1159 14.6612 23.5596 14.6612C22.1664 14.6612 20.8498 15.0028 19.6823 15.6094L21.4139 18.7901C22.0687 18.4817 22.7948 18.3093 23.5596 18.3093ZM28.3109 17.4544C29.5563 17.4544 30.5657 16.4016 30.5657 15.1026C30.5657 13.8032 29.5563 12.75 28.3109 12.75C27.0652 12.75 26.0558 13.8032 26.0558 15.1026C26.0558 16.4016 27.0652 17.4544 28.3109 17.4544ZM28.4281 30.5451C27.1827 30.5451 26.1735 31.5984 26.1735 32.8974C26.1735 34.1968 27.1827 35.25 28.4281 35.25C29.674 35.25 30.6836 34.1968 30.6836 32.8974C30.6836 31.5984 29.674 30.5451 28.4281 30.5451ZM18.3458 23.7482C18.3458 22.0103 19.1269 20.4624 20.3437 19.4666L18.4841 16.3628C16.926 17.5296 15.7523 19.2196 15.199 21.186C16.0663 21.7679 16.6403 22.7835 16.6403 23.9387C16.6403 25.0514 16.1077 26.0343 15.2939 26.6248C15.8894 28.488 17.0483 30.0834 18.5595 31.1901L20.2878 27.9826C19.1033 26.9855 18.3458 25.4597 18.3458 23.7482ZM28.4281 29.6271C28.9524 29.6271 29.4474 29.762 29.8814 29.9991C31.232 28.5126 32.1072 26.5517 32.25 24.3806L28.7462 24.3084C28.477 27.049 26.2575 29.1865 23.5596 29.1865C22.8117 29.1865 22.101 29.0219 21.4578 28.726L19.7163 31.9046C20.8755 32.5003 22.1802 32.8351 23.5597 32.8351C24.1561 32.8351 24.7389 32.7716 25.3021 32.6528C25.4217 30.9608 26.7757 29.6271 28.4281 29.6271Z" fill="#FF05BC"/>
</svg>
